<svg width="19" height="19" viewBox="0 0 19 19" fill="none" xmlns="http://www.w3.org/2000/svg">
<path fill-rule="evenodd" clip-rule="evenodd" d="M9.51327 0C10.7339 0.0435972 11.9981 0.0435972 13.2187 0.0871887C14.3086 0.13078 15.3112 0.305156 16.2703 0.871869C17.4909 1.61296 18.232 2.7028 18.4936 4.09779C18.6243 4.92606 18.6679 5.79792 18.7115 6.62621C18.7551 8.45713 18.7115 10.2881 18.7115 12.119C18.7115 13.078 18.6679 14.0371 18.3628 14.9525C17.7525 16.7399 16.4883 17.8297 14.6573 18.1785C13.829 18.3528 12.9572 18.3528 12.1289 18.3964C10.298 18.44 8.51062 18.3964 6.67968 18.3964C5.72062 18.3964 4.76156 18.3528 3.84609 18.0477C2.05875 17.4374 0.968906 16.1732 0.620155 14.3422C0.445783 13.514 0.445783 12.6421 0.402189 11.8138C0.358592 9.9829 0.402189 8.15197 0.402189 6.32105C0.402189 5.362 0.445783 4.40294 0.750938 3.48747C1.36125 1.70014 2.62547 0.610312 4.4564 0.261563C5.28468 0.0871944 6.15656 0.0871944 6.98484 0.0435972C7.81312 0 8.64139 0 9.51327 0ZM17.055 9.02385C17.055 9.02385 17.0114 9.02385 17.055 9.02385C17.0114 8.28276 17.0114 7.58526 17.0114 6.84417C17.0114 6.14668 16.9678 5.44918 16.8806 4.75169C16.7062 3.18232 15.7908 2.13608 14.265 1.83093C13.4803 1.65655 12.6084 1.65655 11.8237 1.65655C10.2544 1.61296 8.72858 1.61296 7.15921 1.65655C6.37452 1.65655 5.58984 1.70014 4.84874 1.83093C3.54093 2.04889 2.62547 2.78998 2.23313 4.09779C2.10234 4.53372 2.05875 4.96965 2.01516 5.40559C1.97156 7.06214 1.97156 8.71869 1.97156 10.3752C1.97156 11.4215 2.01516 12.5113 2.10234 13.5576C2.23313 15.1269 3.19218 16.2168 4.76156 16.4783C5.54624 16.6091 6.37452 16.6527 7.2028 16.6527C8.72858 16.6963 10.2544 16.6527 11.8237 16.6527C12.5212 16.6527 13.2187 16.6091 13.9162 16.5219C14.5701 16.4783 15.1804 16.2604 15.7036 15.8244C16.5754 15.1269 16.8806 14.2115 16.9242 13.1652C17.0114 11.8574 17.0114 10.4624 17.055 9.02385Z" fill="#383838"/>
<path fill-rule="evenodd" clip-rule="evenodd" d="M14.2209 9.1983C14.2209 11.8139 12.1284 13.9064 9.51281 13.9064C6.89719 13.9064 4.80469 11.8139 4.80469 9.15471C4.80469 6.5827 6.94078 4.49023 9.5564 4.49023C12.1284 4.49023 14.2209 6.5827 14.2209 9.1983ZM9.51281 12.2498C11.1694 12.2498 12.5644 10.8548 12.5644 9.1983C12.5644 7.54176 11.1694 6.14677 9.51281 6.14677C7.81265 6.14677 6.46124 7.54176 6.46124 9.1983C6.41765 10.8548 7.81265 12.2498 9.51281 12.2498Z" fill="#383838"/>
<path d="M15.4859 4.27197C15.4859 4.88228 15.0064 5.40541 14.3961 5.40541C13.7858 5.40541 13.2627 4.88228 13.3063 4.27197C13.3063 3.66166 13.7858 3.18213 14.3961 3.18213C15.0064 3.18213 15.4859 3.66166 15.4859 4.27197Z" fill="#383838"/>
</svg>
