<svg width="20" height="18" viewBox="0 0 20 18" fill="none" xmlns="http://www.w3.org/2000/svg">
<path fill-rule="evenodd" clip-rule="evenodd" d="M19.3452 10.7328V17.5082H15.3887V11.1779C15.3887 9.59534 14.8447 8.50732 13.4105 8.50732C12.3225 8.50732 11.6795 9.24916 11.3828 9.94153C11.2839 10.1888 11.2344 10.535 11.2344 10.8812V17.5082H7.27796C7.27796 17.5082 7.32742 6.77638 7.27796 5.68836H11.2344V7.36985C11.2344 7.36985 11.2344 7.41929 11.185 7.41929H11.2344V7.36985C11.7784 6.57856 12.6686 5.39163 14.7952 5.39163C17.3669 5.39163 19.3452 7.12257 19.3452 10.7328ZM3.22258 0.000976562C1.88727 0.000976562 0.99707 0.891176 0.99707 2.02865C0.99707 3.16612 1.83782 4.05634 3.17312 4.05634H3.22258C4.60735 4.05634 5.44809 3.16613 5.44809 2.02865C5.39864 0.891176 4.55789 0.000976562 3.22258 0.000976562ZM1.19489 17.5082H5.1019V5.68836H1.19489V17.5082Z" fill="#383838"/>
</svg>
